<?xml version="1.0" encoding="UTF-8"?>
<svg xmlns="http://www.w3.org/2000/svg" width="200" height="64" viewBox="0 0 200 64" fill="none">
  <g clip-path="url(#clip0_288_216)">
    <path d="M49.4828 52.4005C43.6032 53.8822 39.8873 54.7524 33.655 56.1635C7.19682 62.7251 7.99644 48.8022 9.31347 42.2641C11.1244 32.8568 15.7575 24.8371 24.4593 14.8888C29.3276 9.69124 33.8666 5.24628 39.7697 3.45888C44.3323 2.21241 43.909 5.81072 43.368 6.25757C42.1679 6.2554 41.0124 6.71204 40.138 7.534C39.2635 8.35596 38.7364 9.48107 38.6644 10.679C38.4997 13.5482 42.686 14.536 45.273 8.04496C47.3191 2.8474 43.6973 0.566124 41.6042 0.377978C24.2241 -1.08016 -8.01954 33.2096 1.95223 54.3761C3.66509 56.9456 6.0746 58.9739 8.89858 60.2234C11.7226 61.473 14.8441 61.8921 17.8977 61.4316C22.7286 60.7487 27.518 59.7987 32.2439 58.5859C36.2185 57.6451 56.4913 51.013 63.1705 62.6075C63.9913 61.3033 65.1347 60.2328 66.4901 59.4994C67.8455 58.7661 69.3672 58.3948 70.908 58.4212C76.5707 58.2749 82.1349 59.9211 86.8064 63.1249C85.3248 61.361 73.2598 46.6621 49.6004 52.5181" fill="#333333"></path>
    <path d="M44.5203 20.8624C44.5203 19.9217 44.0029 16.9819 40.6633 18.9104C39.7388 19.429 38.9806 20.1994 38.4768 21.132C37.9731 22.0646 37.7444 23.1211 37.8176 24.1785C38.1936 25.0422 38.8012 25.785 39.5733 26.3246C40.3454 26.8642 41.2517 27.1796 42.192 27.2359C42.3801 27.2359 42.4507 27.2359 42.5213 27.2359C43.604 25.2989 44.284 23.163 44.5203 20.9565V20.8624ZM41.1807 29.2585C40.01 28.9833 38.9058 28.4776 37.9327 27.7709C36.9595 27.0643 36.1369 26.1708 35.5128 25.1428C35.5128 25.1428 35.5128 25.1428 35.3952 25.1428C33.0163 28.2606 31.0555 31.6762 29.5627 35.3027C27.5401 41.2528 31.3736 40.9471 33.5373 39.2538C36.5174 36.5322 39.0493 33.3574 41.0396 29.8464C41.2278 29.5642 41.3218 29.3526 41.1807 29.3055V29.2585ZM68.8383 39.3243C68.8383 39.9593 69.2381 41.4175 71.4958 40.0299C74.859 38.1955 84.2663 21.4504 85.4187 19.3808C85.0894 17.7815 82.9258 18.2519 81.2795 19.8982C79.1934 22.0182 77.2674 24.29 75.5175 26.695C74.5062 28.0591 68.8853 35.9377 68.8383 39.1832V39.3243ZM44.8025 27.0948C46.1666 27.4241 50.5175 24.4372 53.0575 21.7561C55.2417 19.3999 57.8508 17.477 60.748 16.0882C61.6534 15.6642 62.6409 15.4444 63.6407 15.4444C64.6405 15.4444 65.6281 15.6642 66.5335 16.0882C67.097 16.4231 67.5683 16.893 67.905 17.4555C68.2416 18.018 68.433 18.6553 68.462 19.3102C68.6266 22.5793 65.5927 26.6715 63.7583 26.8126C62.3942 26.8126 61.5476 26.0835 61.6652 25.0487C61.7362 23.9003 62.2386 22.8211 63.0716 22.0274C63.9046 21.2337 65.0067 20.784 66.1572 20.7684C66.3845 20.4408 66.4725 20.0364 66.402 19.644C66.3314 19.2515 66.1081 18.9031 65.7809 18.6752C65.1482 18.4921 64.4785 18.4783 63.8388 18.6351C63.1991 18.792 62.6118 19.114 62.1355 19.5689C56.7479 23.9509 52.678 29.7383 50.3764 36.2905C50.0743 37.009 49.9187 37.7806 49.9187 38.56C49.9187 39.3394 50.0743 40.111 50.3764 40.8295C52.5401 44.028 57.5495 39.6066 57.5495 39.6066C61.0213 36.4838 64.1226 32.9722 66.7922 29.1409C73.4714 19.8982 82.3378 11.9255 86.2654 17.123L86.4535 17.3817L87.2061 16.2058H93.6736L80.2682 38.5012C79.8449 39.1832 79.8213 39.8653 80.2682 40.2415C80.715 40.6178 81.256 40.2415 81.256 40.2415C84.7367 38.6423 90.0753 31.2811 90.1224 31.2575H92.2861C88.802 36.5209 84.4524 41.1567 79.4215 44.9687C73.2127 48.8963 71.8957 44.028 72.6718 41.6762C72.6718 41.6762 67.9681 47.3206 63.5231 46.3798C59.0782 45.4391 61.7122 38.8775 61.8063 38.5247C61.43 38.8775 50.8938 50.5426 44.5203 45.0628C39.1346 40.3591 46.731 28.8352 46.7546 28.8116C45.7093 29.1083 44.6496 29.3517 43.5796 29.5407C42.2155 32.7862 28.4338 52.0242 22.1544 44.9687C19.2616 41.2999 22.1544 33.0214 27.5401 26.1541C33.5843 18.2989 41.2513 13.8069 45.0612 16.1588C48.9182 18.8634 45.4375 25.8718 44.8025 27.2124" fill="#333333"></path>
    <path d="M140.123 5.10515C134.457 8.10423 129.906 12.8451 127.14 18.6282C125.212 22.7909 127.399 23.6376 128.646 23.3319C133.937 21.8972 140.405 12.7721 140.123 5.12867V5.10515ZM123.33 41.3469C120.267 49.6069 114.239 56.4312 106.421 60.4908C104.557 61.4254 102.456 61.7793 100.389 61.5068C98.3217 61.2342 96.384 60.3478 94.8262 58.9622C90.6634 54.7994 91.1103 47.7204 92.8977 42.9462C103.74 13.9716 126.082 2.18888 132.879 0.918893C136.548 0.236861 139.135 0.354451 141.016 2.32999C143.786 1.11884 146.793 0.547013 149.814 0.656942C152.835 0.76687 155.792 1.55573 158.467 2.96499C162.7 5.31682 164.37 6.13996 167.474 7.8568L169.285 8.91513C168.039 10.0675 165.805 12.3253 164.441 13.854C161.689 12.5605 153.834 7.22181 150.823 5.95182C149.342 5.31682 144.591 3.24721 142.192 4.47016C143.062 7.3394 138.735 22.6263 128.481 25.2839C125.659 26.013 122.625 23.1202 126.129 16.394C129.138 10.9947 133.55 6.50911 138.9 3.41184C137.182 2.92413 135.343 3.12667 133.773 3.97628C124.553 8.13902 114.958 19.5689 111.548 24.3902C106.233 31.8925 101.294 40.5708 100.306 49.4372C100.081 50.6994 100.223 51.9994 100.715 53.1833C101.207 54.3671 102.028 55.3851 103.081 56.1164C106.327 57.9979 110.019 55.552 112.488 53.5294C115.518 50.8668 118.044 47.6801 119.944 44.1221C122.296 39.4184 123.048 34.5501 121.19 33.8446C119.332 33.139 117.169 35.4438 116.228 36.7844C114.706 38.8243 113.683 41.1924 113.241 43.6988C110.132 45.143 107.33 47.1709 104.986 49.6724C105.295 46.5078 106.171 43.4248 107.573 40.5708C110.325 34.8794 115.875 30.9048 119.52 30.5755C120.321 30.4444 121.142 30.5584 121.877 30.9026C122.611 31.2468 123.225 31.805 123.636 32.504C125 34.7383 124.107 39.3479 123.33 41.2528" fill="#333333"></path>
    <path d="M190.663 7.52755C186.143 10.2619 180.877 11.5043 175.611 11.0788C174.002 12.773 172.48 14.5469 171.049 16.394C179.092 18.3225 187.653 13.8775 192.403 9.80882C195.523 7.19612 198.103 4.00083 200 0.401489C197.238 3.21453 194.066 5.5933 190.593 7.45699" fill="#333333"></path>
    <path d="M104.187 16.1353H98.1894L94.8027 21.6385H100.8L104.187 16.1353Z" fill="#333333"></path>
    <path d="M175.259 41.5821C176.505 39.4655 179.351 35.1381 179.304 34.7383C179.092 32.9979 176.952 33.9857 176.199 34.5501C169.685 39.5595 163.194 50.5896 163.076 53.9998C163.076 56.0929 164.652 55.5285 164.934 55.4344C167.639 54.6113 172.836 45.7213 175.259 41.5821V41.5821ZM143.556 35.5614C143.556 33.2096 142.074 32.6451 139.887 33.8211C138.894 34.3072 138.075 35.087 137.541 36.0547C137.006 37.0224 136.783 38.1311 136.9 39.2303C137.18 40.1689 137.704 41.0163 138.419 41.6858C139.134 42.3552 140.014 42.8227 140.969 43.0403C142.433 40.7981 143.322 38.2292 143.556 35.5614V35.5614ZM139.887 44.9688C138.739 44.571 137.681 43.9508 136.773 43.1437C135.865 42.3366 135.125 41.3584 134.595 40.2651V40.2651C131.867 43.6752 127.963 50.1428 128.081 53.2002C128.081 53.9763 128.528 56.4222 131.444 54.9876C134.36 53.5529 138.499 47.6263 139.887 44.8747V44.9688ZM184.572 45.6978H186.712C185.089 48.2143 177.305 59.9735 170.814 61.314C167.074 62.1136 166.533 58.9622 167.027 56.4457C165.046 58.5553 162.642 60.2223 159.972 61.3375C157.62 61.7608 154.515 61.0318 155.268 55.1522C151.317 59.8559 146.425 63.5247 143.509 60.044C141.439 57.5746 142.451 53.4118 144.638 47.2971C144.638 47.2971 145.39 45.1099 145.461 44.9452C144.308 45.2023 143.136 45.3596 141.957 45.4156C138.499 51.2011 134.125 57.5275 127.846 60.679C127.068 61.1016 126.213 61.3632 125.332 61.448C124.452 61.5329 123.563 61.4393 122.719 61.1729C120.908 60.1851 120.226 58.2096 120.555 55.1522C121.218 51.4395 122.6 47.8923 124.624 44.7101C127.963 39.7242 132.573 33.6799 138.735 31.234C139.522 30.8531 140.381 30.6397 141.255 30.6073C142.129 30.5749 143.001 30.7243 143.815 31.0459C144.43 31.4816 144.919 32.072 145.233 32.7576C145.547 33.4431 145.674 34.1994 145.602 34.9499C145.587 35.6511 145.524 36.3505 145.414 37.0431C144.91 39.2757 144.12 41.4338 143.062 43.4636C144.24 43.4989 145.404 43.2057 146.425 42.6169C155.08 25.4485 164.934 12.8192 176.646 4.04684C176.646 4.04684 181.35 0.495569 184.454 1.13056C184.835 1.20804 185.183 1.39709 185.455 1.67357C185.728 1.95005 185.911 2.30141 185.983 2.68278C186.187 4.98749 185.561 7.28929 184.219 9.17384C183.325 9.45606 181.867 9.71476 181.867 9.71476C182.901 8.05598 183.648 6.23542 184.078 4.32906C184.078 3.55295 183.608 3.43536 183.42 3.43536C181.632 3.43536 176.035 9.03273 176.035 9.03273C167.333 17.3582 157.22 34.7383 155.527 38.3601C158.866 36.7373 170.884 25.5426 176.693 17.8521C177.427 17.8348 178.158 17.7641 178.881 17.6404C174.595 23.5897 169.683 29.0616 164.229 33.9622C160.919 36.983 157.381 39.7429 153.645 42.2171C151.868 45.7122 150.54 49.4184 149.694 53.2472C149.553 54.5172 149.694 56.2576 151.223 55.9989C153.434 55.599 157.714 48.9434 157.714 48.9434C161.689 43.0167 166.722 35.3968 173.589 31.5398C174.405 31.0527 175.326 30.7667 176.274 30.7054C177.223 30.6441 178.173 30.8091 179.045 31.187C179.741 31.5684 180.288 32.1733 180.597 32.9038L181.538 31.2811H187.959C187.959 31.2811 175.753 51.6244 174.412 54.3761C173.895 55.4815 174.624 55.9518 175.47 55.599C178.269 54.4466 182.244 49.0609 184.548 45.7919" fill="#333333"></path>
    <path d="M190.522 47.8615C190.523 47.9336 190.508 48.005 190.479 48.071C190.45 48.1371 190.408 48.1963 190.355 48.245C190.301 48.2938 190.239 48.3308 190.17 48.3539C190.102 48.3769 190.03 48.3855 189.958 48.3789H189.417V47.3206H189.958C190.03 47.314 190.102 47.3225 190.17 47.3456C190.239 47.3687 190.301 47.4057 190.355 47.4544C190.408 47.5031 190.45 47.5624 190.479 47.6285C190.508 47.6945 190.523 47.7659 190.522 47.838V47.8615ZM191.016 49.9076L190.311 48.6611C190.491 48.6105 190.65 48.5031 190.765 48.3548C190.879 48.2065 190.942 48.0253 190.946 47.838C190.943 47.7175 190.916 47.5988 190.867 47.4887C190.818 47.3786 190.748 47.2792 190.66 47.1962C190.573 47.1132 190.47 47.0482 190.358 47.005C190.245 46.9618 190.125 46.9412 190.005 46.9443H189.017V49.9076H189.417V48.7317H189.864L190.546 49.9311L191.016 49.9076ZM189.887 46.1447C189.422 46.1447 188.967 46.2826 188.581 46.541C188.194 46.7994 187.893 47.1667 187.715 47.5965C187.536 48.0262 187.49 48.4991 187.581 48.9553C187.671 49.4115 187.895 49.8306 188.224 50.1595C188.553 50.4884 188.972 50.7124 189.429 50.8031C189.885 50.8939 190.358 50.8473 190.787 50.6693C191.217 50.4913 191.584 50.1899 191.843 49.8031C192.101 49.4163 192.239 48.9616 192.239 48.4965C192.239 47.8727 191.991 47.2746 191.55 46.8335C191.109 46.3924 190.511 46.1447 189.887 46.1447ZM189.887 51.1305C189.351 51.1352 188.826 50.9805 188.378 50.6862C187.931 50.3919 187.58 49.9711 187.372 49.4774C187.164 48.9836 187.107 48.439 187.208 47.9129C187.31 47.3867 187.566 46.9026 187.943 46.522C188.32 46.1414 188.802 45.8814 189.327 45.7752C189.853 45.6689 190.398 45.721 190.893 45.925C191.389 46.129 191.813 46.4757 192.111 46.9209C192.409 47.3662 192.568 47.89 192.568 48.4259C192.568 49.1392 192.287 49.8236 191.785 50.3301C191.282 50.8367 190.601 51.1243 189.887 51.1305" fill="#333333"></path>
  </g>
  <defs>
    <clipPath id="clip0_288_216">
      <rect width="200" height="62.6764" fill="white" transform="translate(0 0.330933)"></rect>
    </clipPath>
  </defs>
</svg>
